<?xml version="1.0" ?><!DOCTYPE svg  PUBLIC '-//W3C//DTD SVG 1.1//EN'  'http://www.w3.org/Graphics/SVG/1.1/DTD/svg11.dtd'><svg id="Layer_1" style="enable-background:new 0 0 512 512;" version="1.1" viewBox="0 0 512 512" xml:space="preserve" xmlns="http://www.w3.org/2000/svg" xmlns:xlink="http://www.w3.org/1999/xlink"><style type="text/css">
	.st0{fill:#EAE21C;}
</style><g><g><path class="st0" d="M95.2,0C55.9,0,25.4,56.4,25.4,104.9c0,23.3,7.1,42.5,20.5,55.5c11.4,11,26.6,17.3,44.4,18.2v328.4     c0,2.7,2.2,4.9,4.9,4.9c2.7,0,4.9-2.2,4.9-4.9V178.7c17.8-1,33.1-7.2,44.4-18.2c13.4-13,20.5-32.2,20.5-55.5     C165.1,56.4,134.6,0,95.2,0z M137.7,153.4c-10.5,10.2-25.2,15.6-42.5,15.6c-17.3,0-32-5.4-42.5-15.6     c-11.5-11.1-17.5-27.9-17.5-48.5C35.2,52.2,68,9.8,95.2,9.8c33.3,0,60.1,52,60.1,95.1C155.3,125.5,149.2,142.3,137.7,153.4z"/><path class="st0" d="M486.6,507.1l0-502.2c0-2.7-2.2-4.9-4.9-4.9c-22.4,0-41.4,15.2-46.3,37.1l-46.8,209.6     c-3.2,14.1,0.2,28.7,9.3,40c9,11.3,22.5,17.8,37,17.8h11.7c2.7,0,4.9-2.2,4.9-4.9c0-2.7-2.2-4.9-4.9-4.9h-11.7     c-11.5,0-22.2-5.1-29.3-14.1c-7.2-9-9.9-20.5-7.4-31.7L445,39.2c3.5-15.7,16.2-27.1,31.8-29.1v497H486.6z"/><path class="st0" d="M345,0.8c-2.7,0-4.9,2.2-4.9,4.9v96.4c0,33.2-27,60.3-60.3,60.3s-60.3-27-60.3-60.3V5.7     c0-2.7-2.2-4.9-4.9-4.9c-2.7,0-4.9,2.2-4.9,4.9v96.4c0,37.1,29,67.6,65.6,69.9c-0.2,0.6-0.4,1.2-0.4,1.9v333.2     c0,2.7,2.2,4.9,4.9,4.9c2.7,0,4.9-2.2,4.9-4.9V173.9c0-0.7-0.1-1.3-0.4-1.9c36.5-2.3,65.6-32.8,65.6-69.9V5.7     C349.9,3,347.7,0.8,345,0.8z"/><path class="st0" d="M257.7,91.4c2.7,0,4.9-2.2,4.9-4.9V5.7c0-2.7-2.2-4.9-4.9-4.9s-4.9,2.2-4.9,4.9v80.8     C252.8,89.2,255,91.4,257.7,91.4z"/><path class="st0" d="M306.2,91.4c2.7,0,4.9-2.2,4.9-4.9V5.7c0-2.7-2.2-4.9-4.9-4.9c-2.7,0-4.9,2.2-4.9,4.9v80.8     C301.3,89.2,303.5,91.4,306.2,91.4z"/></g></g></svg>